<svg version="1.2" xmlns="http://www.w3.org/2000/svg" viewBox="0 0 264 260" width="264" height="260">
	<title>Logo-ai</title>
	<defs>
		<radialGradient id="g1" cx="0" cy="0" r="1" gradientUnits="userSpaceOnUse" gradientTransform="matrix(126.755,0,0,126.755,767.245,64.502)">
			<stop offset="0" stop-color="#29abe2" stop-opacity="0"/>
			<stop offset="1" stop-color="#333333" stop-opacity="1"/>
		</radialGradient>
	</defs>
	<style>
		.s0 { display: none;fill: url(#g1) } 
		.s1 { opacity: 1;display: none;fill: #d4145a } 
		.s2 { opacity: .9;display: none;fill: #29abe2 } 
		.s3 { fill: #000000 } 
		.s4 { fill: none;stroke: #0000ff;stroke-miterlimit:10;stroke-width: 14 } 
		.s5 { fill: #d4145a } 
		.s6 { opacity: .9;fill: #29abe2 } 
	</style>
	<g id="Layer 1">
		<path id="&lt;Path&gt;" class="s0" d="m894 64.5c0 70-56.8 126.8-126.8 126.8-70 0-126.7-56.8-126.7-126.8 0-70 56.7-126.8 126.7-126.8 70 0 126.8 56.8 126.8 126.8z"/>
		<g id="&lt;Group&gt;" style="display: none">
		</g>
		<g id="&lt;Group&gt;">
			<g id="&lt;Group&gt;">
				<g id="&lt;Group&gt;">
				</g>
				<g id="&lt;Group&gt;">
				</g>
				<g id="&lt;Group&gt;">
				</g>
			</g>
		</g>
		<path id="&lt;Path&gt;" class="s1" d="m352.8 391.2l-34.1 76.1c-7.3 16.3 0.7 35.8 17.9 43.4l80 35.9c27.7 12.4 55.9-13.3 44.5-40.8l-23.2-55.7-22.6-55.9c-11.1-27.5-50.6-29.4-62.5-3z"/>
		<path id="&lt;Path&gt;" class="s2" d="m399.9 412.5l78.7 27.6c16.9 5.9 25.5 25.1 19.3 42.8l-29 82.7c-10.1 28.7-48.1 31.4-60.2 4.3l-24.5-55.1-25.1-54.9c-12.3-27 13.5-57 40.8-47.4z"/>
		<path id="&lt;Path&gt;" class="s3" d="m131.5 260c-72.9 0-131.8-58.1-131.8-130 0-71.9 58.9-130 131.8-130 72.9 0 131.8 58.1 131.8 130 0 71.9-58.9 130-131.8 130z"/>
		<path id="&lt;Path&gt;" class="s4" d="m131.5 255.1c-69.4 0-125.5-56.3-125.5-125.9 0-69.6 56.1-125.9 125.5-125.9 69.4 0 125.5 56.3 125.5 125.9 0 69.6-56.1 125.9-125.5 125.9z"/>
		<path id="&lt;Path&gt;" class="s5" d="m64.4 168.5l-13.2-18.1c-12.9-17.8-8-42.1 10.9-54.3l73.4-47.3c18.9-12.2 44.7-7.6 57.6 10.2l13.2 18.1z"/>
		<path id="&lt;Path&gt;" class="s6" d="m73.7 210.7l-13.1-18.2c-1.6-2.1-1-4.9 1.2-6.4l137.3-88.4 13.2 18.1c13 17.8 8.1 42.1-10.8 54.3l-76.9 49.5c-16.7 10.8-39.5 6.8-50.9-8.9z"/>
	</g>
</svg>